<?xml version="1.0"?>
<svg xmlns="http://www.w3.org/2000/svg" id="Layer_1" data-name="Layer 1" viewBox="0 0 512 512" width="512" height="512"><title>Application Settings</title><path d="M118.575,465h160C297.323,465,313,449.748,313,431V405H85v26A33.678,33.678,0,0,0,118.575,465Zm80-51a21,21,0,1,1-21,21A21.023,21.023,0,0,1,198.575,414Z"/><path d="M313,377H301.867a6,6,0,0,1-5.972-5.424l-2-20.736a98.7,98.7,0,0,1-24.63-10.407l-15.953,13.212a6,6,0,0,1-8.067-.379l-23.779-23.783a6,6,0,0,1-.37-8.069L234.3,305.5a96.663,96.663,0,0,1-10.346-24.668l-20.664-2A5.883,5.883,0,0,1,198,272.858V239.141a5.882,5.882,0,0,1,5.287-5.972l20.6-2a98.757,98.757,0,0,1,10.408-24.63l-13.212-15.954a6,6,0,0,1,.378-8.069l23.783-23.783a6,6,0,0,1,8.07-.379l15.917,13.182a96.732,96.732,0,0,1,24.667-10.38l2-20.733A6,6,0,0,1,301.867,135H313V107H298.575a6,6,0,0,1,0-12H313V81c0-18.748-15.677-34-34.425-34h-160A33.678,33.678,0,0,0,85,81V95H247.575a6,6,0,0,1,0,12H85V393H313ZM267.27,95h11.115a6,6,0,0,1,0,12H267.27a6,6,0,0,1,0-12ZM151,183h38a6,6,0,0,1,0,12H151a6,6,0,0,1,0-12Zm28,66h-8.29a6,6,0,0,1,0-12H179a6,6,0,0,1,0,12Zm6,44a6,6,0,0,1-6,6H140.71a6,6,0,0,1,0-12H179A6,6,0,0,1,185,293ZM108,183h16.177a6,6,0,0,1,0,12H108a6,6,0,0,1,0-12Zm0,54h36.177a6,6,0,1,1,0,12H108a6,6,0,0,1,0-12Zm0,50h6.177a6,6,0,1,1,0,12H108a6,6,0,0,1,0-12Zm46.177,62H108a6,6,0,0,1,0-12h46.177a6,6,0,1,1,0,12ZM209,349H181a6,6,0,0,1,0-12h28a6,6,0,0,1,0,12Z"/><circle cx="198.575" cy="435" r="9"/><path d="M318.726,315.646A59.646,59.646,0,1,0,259.08,256,59.713,59.713,0,0,0,318.726,315.646Zm-31.645-65.718a6,6,0,0,1,8.484-.1l15.227,14.866,30.793-30.063a6,6,0,1,1,8.383,8.586l-34.984,34.156a6,6,0,0,1-8.383,0l-19.418-18.958A6,6,0,0,1,287.081,249.928Z"/><path d="M305.431,166.562a6,6,0,0,1-4.7,5.289,84.222,84.222,0,0,0-28.646,12.073,6,6,0,0,1-7.154-.371l-15.058-12.471L233.816,187.14,246.3,202.2a6,6,0,0,1,.438,7.079A86.719,86.719,0,0,0,234.646,238a5.922,5.922,0,0,1-5.221,4.7L210,244.591v22.818l19.425,1.886a5.844,5.844,0,0,1,5.152,4.7,84.207,84.207,0,0,0,12.073,28.647,6,6,0,0,1-.371,7.154l-12.472,15.06,16.058,16.058,15.06-12.471a6,6,0,0,1,7.08-.421,86.862,86.862,0,0,0,28.722,12.123,6,6,0,0,1,4.7,5.289L307.317,365h22.818l1.885-19.562a6,6,0,0,1,4.7-5.289,84.213,84.213,0,0,0,28.646-12.073,6,6,0,0,1,7.153.371l15.057,12.471,16.051-16.058L391.146,309.8a6,6,0,0,1-.447-7.079A86.7,86.7,0,0,0,402.768,274a5.881,5.881,0,0,1,5.176-4.7L427,267.416V244.591l-19.35-1.886a5.762,5.762,0,0,1-5.077-4.7A84.2,84.2,0,0,0,390.5,209.354a6,6,0,0,1,.372-7.154l12.493-15.087L387.559,171.1l-15.032,12.449a6,6,0,0,1-7.08.421,86.862,86.862,0,0,0-28.722-12.123,6,6,0,0,1-4.705-5.289L330.135,147H307.317ZM390.372,256a71.646,71.646,0,1,1-71.646-71.646A71.727,71.727,0,0,1,390.372,256Z"/></svg>
