<?xml version="1.0" encoding="iso-8859-1"?>
<!-- Generator: Adobe Illustrator 19.0.0, SVG Export Plug-In . SVG Version: 6.00 Build 0)  -->
<svg version="1.1" id="Capa_1" xmlns="http://www.w3.org/2000/svg" xmlns:xlink="http://www.w3.org/1999/xlink" x="0px" y="0px"
	 viewBox="0 0 512 512" style="enable-background:new 0 0 512 512;" xml:space="preserve">
<g>
	<g>
		<circle cx="377" cy="317" r="15"/>
	</g>
</g>
<g>
	<g>
		<path d="M452,264.806V166c0-41.355-33.645-75-75-75c-7.836,0-67.566,0-75,0V75c0-41.463-34.535-75-76-75
			c-41.463,0-76,33.535-76,75v16c-7.43,0-67.164,0-75,0c-41.355,0-75,33.645-75,75v241c0,24.813,20.187,45,45,45
			c8.281,0,208.25,0,219.806,0c24.247,36.154,65.487,60,112.194,60c74.439,0,135-60.561,135-135
			C512,330.292,488.154,289.053,452,264.806z M60,422H45c-8.271,0-15-6.729-15-15V212h30V422z M60,182H30v-16
			c0-19.555,12.541-36.228,30-42.42V182z M392,123.58c17.459,6.192,30,22.865,30,42.42v16h-30V123.58z M392,212h30v37.722
			c-9.555-3.389-19.601-5.729-30-6.884V212z M332,121h30v121.838c-10.399,1.155-20.445,3.496-30,6.884V121z M180,75
			c0-24.393,21.065-45,46-45s46,20.607,46,45v16h-92V75z M150,121h152v61H150V121z M120,422H90V121h30V422z M249.722,422H150V212
			h152v52.806c-36.154,24.248-60,65.487-60,112.194C242,392.772,244.728,407.918,249.722,422z M377,482
			c-57.897,0-105-47.103-105-105c0-57.895,47.098-104.996,104.992-105c0.003,0,0.005,0,0.008,0s0.005,0,0.008,0
			C434.902,272.004,482,319.105,482,377C482,434.897,434.897,482,377,482z"/>
	</g>
</g>
<g>
	<g>
		<path d="M377,362c-8.284,0-15,6.716-15,15v60c0,8.284,6.716,15,15,15s15-6.716,15-15v-60C392,368.716,385.284,362,377,362z"/>
	</g>
</g>
<g>
</g>
<g>
</g>
<g>
</g>
<g>
</g>
<g>
</g>
<g>
</g>
<g>
</g>
<g>
</g>
<g>
</g>
<g>
</g>
<g>
</g>
<g>
</g>
<g>
</g>
<g>
</g>
<g>
</g>
</svg>
